<svg xmlns="http://www.w3.org/2000/svg" version="1.1" xmlns:xlink="http://www.w3.org/1999/xlink" xmlns:svgjs="http://svgjs.dev/svgjs" width="100%" height="100%" viewBox="0 0 1000 600"><rect width="1000" height="600" x="0" y="0" fill="#ffff"/><g><circle r="166.66666666666666" cx="270.2136789957682" cy="292.4358982001082" fill="#black" transform="matrix(1.207181195559326,0,0,1.2071811955593255,0,-53.02312085184322)"/><path d="M190.98290964994362 367.4358964976127L190.98290964994362 367.4358964976127Q176.9871840668574 367.4358964976127 172.20085959264165 358.9743585878384L172.20085959264165 358.9743585878384Q170.51282551468162 355.8974357115569 170.51282551468162 352.9700854750946L170.51282551468162 352.9700854750946Q170.51282551468162 350.36324803824493 171.75214167318393 347.1367525221442L171.75214167318393 347.1367525221442Q167.905988077832 340.98290676958106 167.905988077832 334.3589755775861L167.905988077832 334.3589755775861Q167.905988077832 326.047010307631 173.44017575114393 320.2136773546806L173.44017575114393 320.2136773546806Q178.9743634244559 314.5085495215752 186.3675253355213 314.5085495215752L186.3675253355213 314.5085495215752Q191.90171300883324 314.5085495215752 196.81624260289405 318.2051304771079L196.81624260289405 318.2051304771079Q200.51282355842676 320.66239527413836 202.37179779618018 324.9786343089222L202.37179779618018 324.9786343089222L240.36324831026766 310.512823286404L242.20085502804696 303.14102889531284Q242.97008574711734 300.36325129866975 243.82478654608443 296.51709770331786Q244.6794873450515 292.67094410796585 245.74786334376037 287.90598715372437L245.74786334376037 287.90598715372437Q247.13675214208192 281.4316286015486 248.52564094040346 276.9871844469196Q249.8931622187508 272.52137277231657 251.13247837725308 269.7435951756735L251.13247837725308 269.7435951756735Q251.60256381668503 268.6752191769647 252.200854375962 268.6752191769647L252.200854375962 268.6752191769647Q253.1410252548258 268.6752191769647 252.52136717557462 270.21368061510543L252.52136717557462 270.21368061510543Q249.7435895789316 276.21795372784925 247.2863247819012 288.2051324333628L247.2863247819012 288.2051324333628L242.82051310729807 309.4444472876952Q243.58974382636845 309.12393448808257 244.4444446253356 308.82478920844403Q245.27777790432847 308.5256439288055 246.04700862339885 308.20513112919286L246.04700862339885 308.20513112919286L248.9743588598612 306.98718249066474Q249.8931622187508 300.6623965783083 250.8333330976146 294.50855082574515Q251.75213645650425 288.354705073182 252.8205124552131 282.05128668079965L252.8205124552131 282.05128668079965Q257.90598220906736 256.04701487222576 267.28632347773123 238.974366412858L267.28632347773123 238.974366412858Q262.9700844429474 243.91026352689298 258.4401702084218 250.5128271989138Q253.91025597389617 257.13675839090877 248.9743588598612 265.44872366086383L248.9743588598612 265.44872366086383L242.37179518784038 276.5170990074878Q239.1239321517654 282.05128668079965 235.74786399584534 287.4359017142924L235.74786399584534 287.4359017142924Q223.91025793015106 305.7478663321625 220.21367697461835 305.7478663321625L220.21367697461835 305.7478663321625Q219.12393345593532 305.7478663321625 219.5940188953672 304.6794903334536L219.5940188953672 304.6794903334536Q226.98718080643258 286.81624363504125 226.98718080643258 263.9102622227231L226.98718080643258 263.9102622227231Q226.98718080643258 260.06410862737107 226.66666800681995 256.3675276718384L226.66666800681995 256.3675276718384Q225.89743728774957 256.6666729514769 224.82906128904065 256.6666729514769L224.82906128904065 256.6666729514769L223.14102721108065 256.98718575108956L222.52136913182952 256.98718575108956Q222.67094177164873 258.3547070294369 222.75641185154547 259.97863854747436Q222.820514411468 261.60257006551194 222.820514411468 263.2906041434719L222.820514411468 263.2906041434719Q222.820514411468 265.74786894050237 222.67094177164873 268.6752191769647Q222.52136913182952 271.602569413427 222.20085633221683 274.8290649295277L222.20085633221683 274.8290649295277Q220.8333350538695 290.3632519507547 216.04701057965374 304.8290629732728L216.04701057965374 304.8290629732728Q215.89743793983453 305.27778089273056 215.44872002037678 305.27778089273056L215.44872002037678 305.27778089273056Q214.6794893013064 305.27778089273056 214.97863458094488 304.5085501736602L214.97863458094488 304.5085501736602Q219.29487361572873 291.1324826698251 220.66239489407607 274.6794922897085L220.66239489407607 274.6794922897085Q220.98290769368876 271.43162925363356 221.13248033350797 268.52564653714535Q221.28205297332724 265.59829630068305 221.28205297332724 263.1410315036527L221.28205297332724 263.1410315036527Q221.28205297332724 261.4316299057185 221.21795041340468 259.97863854747436Q221.13248033350797 258.5256471892303 220.98290769368876 257.13675839090877L220.98290769368876 257.13675839090877Q218.52564289665835 257.4359036705473 215.74786530001526 257.4359036705473L215.74786530001526 257.4359036705473Q202.52137043599944 257.4359036705473 193.44017444697403 252.20086127687384L193.44017444697403 252.20086127687384Q185.27778181683826 247.5854769624515 181.13248294184783 241.75214400950105L181.13248294184783 241.75214400950105Q177.13675670667666 249.29487856038568 177.13675670667666 255.89744223240652L177.13675670667666 255.89744223240652Q177.13675670667666 266.8162449392112 186.66667061515977 266.8162449392112L186.66667061515977 266.8162449392112Q194.05983252622516 266.8162449392112 198.82478948046673 259.2948779083007L198.82478948046673 259.2948779083007Q199.12393476010521 259.2948779083007 199.12393476010521 260.06410862737107L199.12393476010521 260.06410862737107Q197.90598612157712 262.9700913438593 193.91025988640592 265.8974415803216L193.91025988640592 265.8974415803216Q189.44444821180284 269.2948772562157 184.8290638973805 269.2948772562157L184.8290638973805 269.2948772562157Q174.0598338303951 269.2948772562157 174.0598338303951 256.3675276718384L174.0598338303951 256.3675276718384Q174.0598338303951 247.75641712224493 179.74359414352628 239.74359713192837L179.74359414352628 239.74359713192837Q177.43590198631514 235.44872561711873 177.43590198631514 230.98291394251564L177.43590198631514 230.98291394251564Q177.43590198631514 225.27778610941024 181.36752566156377 221.3675299541358Q185.27778181683826 217.43590627888713 191.2820549295821 217.43590627888713L191.2820549295821 217.43590627888713Q198.97436212028597 217.43590627888713 206.3675240313514 223.9102648310629L206.3675240313514 223.9102648310629Q223.91025793015106 223.1410341119925 229.74359088310146 241.6025713696818L229.74359088310146 241.6025713696818Q231.4316249610615 247.13675904299376 231.90171040049339 253.7393227150146L231.90171040049339 253.7393227150146Q246.66666670265002 248.82479312095379 247.2863247819012 238.974366412858L247.2863247819012 238.974366412858Q247.2863247819012 238.35470833360685 247.9059828611523 238.35470833360685L247.9059828611523 238.35470833360685Q248.52564094040346 238.52564849340027 248.52564094040346 239.12393905267723L248.52564094040346 239.12393905267723Q247.9059828611523 249.89316911966264 232.05128304031265 254.97863887351687L232.05128304031265 254.97863887351687Q232.52136847974455 267.28633037864313 229.29487296364377 281.28205596172927L229.29487296364377 281.28205596172927Q226.2179500873622 294.35897818592593 221.75213841275914 303.5897468147706L221.75213841275914 303.5897468147706Q224.50854848942802 302.37179817624246 229.74359088310146 293.44017482703623L229.74359088310146 293.44017482703623Q231.4316249610615 290.5128245905739 233.14102655899572 287.5854743541116Q234.82906063695575 284.6794916376235 236.51709471491571 281.602568761342L236.51709471491571 281.602568761342Q240.21367567044845 274.9786375693469 243.91025662598113 268.44017645724864Q247.58547006153967 261.90171534515036 251.43162365689156 255.27778415315535L251.43162365689156 255.27778415315535Q257.2863241298162 245.44872496503376 263.0555545228441 238.2051356937876Q268.824784915872 230.98291394251564 274.20939994936475 226.21795698827407L274.20939994936475 226.21795698827407Q275.27777594807355 225.44872626920366 276.3675194667567 225.44872626920366L276.3675194667567 225.44872626920366Q277.5854681052848 225.44872626920366 277.5854681052848 226.51710226791255L277.5854681052848 226.51710226791255Q277.5854681052848 227.28633298698296 276.8162373862144 228.52564914548523L276.8162373862144 228.52564914548523Q267.43589611755044 242.05128928913953 262.200853723877 260.9829119862608L262.200853723877 260.9829119862608Q260.51281964591703 267.28633037864313 259.1239308475955 274.44444956999257Q257.75640956924815 281.602568761342 256.98717885017777 289.59402123168434L256.98717885017777 289.59402123168434L255.5982900518562 303.9102596143832Q260.51281964591703 301.7521400969913 267.7564089171632 297.58547370202666L267.7564089171632 297.58547370202666Q269.7435882747617 296.51709770331786 270.21367371419353 296.51709770331786L270.21367371419353 296.51709770331786Q270.51281899383207 296.51709770331786 270.51281899383207 296.66667034313707L270.51281899383207 296.66667034313707Q270.51281899383207 297.7564138618201 267.136750837912 299.7435932194186L267.136750837912 299.7435932194186Q262.82051180312817 302.5213708160617 254.82905933278576 307.13675513048406L254.82905933278576 307.13675513048406Q247.2863247819012 338.82478725218914 221.90171105257835 356.5170937908081L221.90171105257835 356.5170937908081Q206.0470112317387 367.4358964976127 190.98290964994362 367.4358964976127ZM180.51282486259666 238.6752211332195L180.51282486259666 238.6752211332195Q189.89316613126059 226.04701682848062 203.73931907452757 224.20941011070138L203.73931907452757 224.20941011070138Q196.98718276268747 218.67522243738944 190.5128242105117 218.67522243738944L190.5128242105117 218.67522243738944Q185.27778181683826 218.67522243738944 181.8162435810215 222.05129059330946Q178.35470534520476 225.44872626920366 178.35470534520476 230.66240114290298L178.35470534520476 230.66240114290298Q178.35470534520476 234.67949489804832 180.51282486259666 238.6752211332195ZM215.59829266019602 256.2179550320192L215.59829266019602 256.2179550320192L218.20513009704567 256.2179550320192Q219.5940188953672 256.2179550320192 220.8333350538695 256.04701487222576L220.8333350538695 256.04701487222576Q219.12393345593532 243.44017808746108 210.66239554616104 231.60257202176678L210.66239554616104 231.60257202176678Q209.4444469076329 230.064110583626 208.29060082902734 228.67522178530447Q207.13675475042177 227.28633298698296 205.89743859191947 226.04701682848062L205.89743859191947 226.04701682848062Q199.29487491989866 225.44872626920366 192.67094372790362 229.2948798645556Q186.04701253590864 233.14103345990753 181.75214102109896 240.51282785099878L181.75214102109896 240.51282785099878Q185.5982946164509 246.51710096374262 194.05983252622516 251.13248527816492L194.05983252622516 251.13248527816492Q202.97008835545716 256.2179550320192 215.59829266019602 256.2179550320192ZM222.52136913182952 255.89744223240652L222.52136913182952 255.89744223240652L222.97008705128724 255.7478695925873L224.67948864922144 255.44872431294877Q225.7478646479303 255.44872431294877 226.51709536700068 255.12821151333614L226.51709536700068 255.12821151333614Q225.7478646479303 248.82479312095379 224.20940320978954 243.73932336709956L224.20940320978954 243.73932336709956Q219.74359153518643 229.89317042383257 209.2948742678137 226.81624754755103L209.2948742678137 226.81624754755103Q212.9700877033722 230.66240114290298 216.04701057965374 236.2179563361891L216.04701057965374 236.2179563361891Q221.28205297332724 245.1282121654211 222.52136913182952 255.89744223240652ZM189.12393541219018 362.97008482300964L189.12393541219018 362.97008482300964Q195.7478666041852 362.97008482300964 202.67094307581866 361.13247810523035L202.67094307581866 361.13247810523035Q219.29487361572873 356.6666664306273 231.4316249610615 343.4401715666115L231.4316249610615 343.4401715666115Q244.5085471852581 329.44444598352527 248.52564094040346 309.7435925673336L248.52564094040346 309.7435925673336L242.0512823882277 312.3717975241575Q238.52564159248843 325.59829238817326 233.5897444784534 333.29059957887716L233.5897444784534 333.29059957887716Q226.81624064663916 343.73931684624995 216.04701057965374 350.9829061174961L216.04701057965374 350.9829061174961Q204.82906259321058 358.5256406683808 194.05983252622516 358.5256406683808L194.05983252622516 358.5256406683808Q181.4316282214863 358.5256406683808 173.91026119057585 350.0641027586065L173.91026119057585 350.0641027586065Q172.97009031171203 351.9017094763858 172.97009031171203 353.739316194165L172.97009031171203 353.739316194165Q172.97009031171203 355.5982904319185 174.0598338303951 357.13675187005924L174.0598338303951 357.13675187005924Q177.58547462613436 362.97008482300964 189.12393541219018 362.97008482300964ZM193.91025988640592 357.28632450987845L193.91025988640592 357.28632450987845Q203.910259234321 357.28632450987845 214.82906194112562 349.8931625988131L214.82906194112562 349.8931625988131Q224.35897584960875 343.2905989267922 231.28205232124228 332.670941499626L231.28205232124228 332.670941499626Q236.04700927548382 325.44871974835405 239.5940175911973 313.4401735228664L239.5940175911973 313.4401735228664Q217.1367540983368 322.37179687207254 203.5897464347083 328.9743605440933L203.5897464347083 328.9743605440933Q204.0598318741402 330.8333347818468 204.0598318741402 332.97008677926453L204.0598318741402 332.97008677926453Q204.0598318741402 338.6752146123699 201.1324816376779 343.91025700604337L201.1324816376779 343.91025700604337Q200.98290899785863 344.5085475653203 200.21367827878825 344.2094022856819L200.21367827878825 344.2094022856819Q199.74359283935635 344.0598296458626 200.06410563896904 343.2905989267922L200.06410563896904 343.2905989267922Q202.37179779618018 339.1239325318277 202.37179779618018 334.5085482174053L202.37179779618018 334.5085482174053Q202.37179779618018 331.9017107805556 201.75213971692907 329.893163902983L201.75213971692907 329.893163902983Q189.89316613126059 335.5982917360884 183.67521781877494 339.97863333079476Q177.43590198631514 344.3589749255011 174.67949190964623 348.67521396028496L174.67949190964623 348.67521396028496Q181.9017136609182 357.28632450987845 193.91025988640592 357.28632450987845ZM172.52137239225434 345.59829108400345L172.52137239225434 345.59829108400345Q175.44872262871664 340.3632486903299 182.05128630073747 335.89743701572684L182.05128630073747 335.89743701572684Q185.74786725627015 333.29059957887716 190.27778149079577 330.8333347818468Q194.82906324529554 328.35470246484226 200.21367827878825 325.8974376678118L200.21367827878825 325.8974376678118Q198.35470404103484 322.52136951189175 195.4487213245467 320.3632499944998L195.4487213245467 320.3632499944998Q190.5128242105117 316.66666903896714 185.128209177019 316.66666903896714L185.128209177019 316.66666903896714Q178.67521814481742 316.66666903896714 173.73932103078243 321.60256615300216L173.73932103078243 321.60256615300216Q168.97436407654087 326.51709574706297 168.97436407654087 333.91025765812833L168.97436407654087 333.91025765812833Q168.97436407654087 339.74359061107873 172.52137239225434 345.59829108400345ZM327.58546484486 316.66666903896714L327.58546484486 316.66666903896714Q320.51281573340725 316.66666903896714 313.4401666219545 312.2008573643641L313.4401666219545 312.2008573643641Q309.12392758717067 312.97008808343446 305.4487141516121 312.97008808343446L305.4487141516121 312.97008808343446Q292.8205098468733 312.97008808343446 286.5170914544909 306.8162423308713L286.5170914544909 306.8162423308713Q280.83333114135974 301.28205465755934 280.83333114135974 291.43162794946363L280.83333114135974 291.43162794946363Q280.83333114135974 284.97863691726207 283.2905959383901 277.75641516599L283.2905959383901 277.75641516599Q280.5128183417471 272.52137277231657 280.5128183417471 266.8162449392112L280.5128183417471 266.8162449392112Q280.5128183417471 252.67094671630574 296.21794552276754 241.75214400950105L296.21794552276754 241.75214400950105Q300.982902477009 230.98291394251564 310.5128163854922 224.97864082977176L310.5128163854922 224.97864082977176Q318.9743542952664 219.29488051664057 327.9059776444726 219.29488051664057L327.9059776444726 219.29488051664057Q341.2820451483077 219.29488051664057 344.9786261038404 230.36325586326447L344.9786261038404 230.36325586326447Q346.0470021025492 233.29060609972677 345.8974294627301 236.51710161582758L345.8974294627301 236.51710161582758Q360.3632404852482 244.50855408616994 360.3632404852482 260.9829119862608L360.3632404852482 260.9829119862608Q360.3632404852482 276.9871844469196 349.1239249788308 290.66239723039325L349.1239249788308 290.66239723039325Q349.29486513862423 291.43162794946363 349.29486513862423 292.1367561086115Q349.29486513862423 292.8205167477852 349.29486513862423 293.58974746685556L349.29486513862423 293.58974746685556Q349.29486513862423 299.8931658592379 346.51708754198114 305.27778089273056L346.51708754198114 305.27778089273056Q342.67093394662925 312.6709428037959 334.3589686766742 315.5982930402582L334.3589686766742 315.5982930402582Q331.28204580039267 316.66666903896714 327.58546484486 316.66666903896714ZM299.29486839904905 239.74359713192837L299.29486839904905 239.74359713192837Q312.3717906232456 232.20086258104374 328.8247810033622 232.20086258104374L328.8247810033622 232.20086258104374Q337.2863189131365 232.20086258104374 344.67948082420185 235.89744353657645L344.67948082420185 235.89744353657645Q344.67948082420185 233.14103345990753 343.73930994533805 230.51282850308374L343.73930994533805 230.51282850308374Q340.2136691495988 220.5128291551687 327.9059776444726 220.5128291551687L327.9059776444726 220.5128291551687Q319.7435850143369 220.5128291551687 312.5213632630648 225.27778610941024L312.5213632630648 225.27778610941024Q304.05982535329065 230.66240114290298 299.29486839904905 239.74359713192837ZM310.363243745673 307.13675513048406L310.363243745673 307.13675513048406Q320.2136704537687 305.27778089273056 329.8290544421486 299.35897785988345Q339.4444384305284 293.44017482703623 346.0470021025492 284.6794916376235L346.0470021025492 284.6794916376235Q343.91025010513147 279.12393644433735 338.82478035127724 275.06410764924374Q333.739310597423 270.9829113341758 328.20512292411104 270.9829113341758L328.20512292411104 270.9829113341758Q321.28204645247763 270.9829113341758 317.2863202173064 278.20513308544776L317.2863202173064 278.20513308544776Q317.2863202173064 278.5256458850604 316.987174937668 278.5256458850604L316.987174937668 278.5256458850604Q315.59828613934644 278.5256458850604 316.2179442185976 277.5854750061966L316.2179442185976 277.5854750061966Q320.51281573340725 269.59402253585426 328.20512292411104 269.59402253585426L328.20512292411104 269.59402253585426Q333.739310597423 269.59402253585426 339.1239256309158 273.6752188509222Q344.50854066440843 277.75641516599 347.1367456212323 283.14103019948277L347.1367456212323 283.14103019948277Q355.12819809157463 271.9017146930654 355.12819809157463 258.97436510868806L355.12819809157463 258.97436510868806Q355.12819809157463 246.21795568410414 345.4487115432722 239.29487921247065L345.4487115432722 239.29487921247065Q344.20939538477 244.50855408616994 340.3632417894181 248.20513504170262Q336.5170881940661 251.90171599723536 331.28204580039267 252.05128863705457L331.28204580039267 252.05128863705457Q330.6623877211415 252.05128863705457 330.6623877211415 251.43163055780346L330.6623877211415 251.43163055780346Q330.6623877211415 250.83333999852644 331.28204580039267 250.83333999852644L331.28204580039267 250.83333999852644Q336.04700275463426 250.66239983873302 339.67948115024444 247.13675904299376Q343.2905920258804 243.58975072728032 344.3589680245892 238.52564849340027L344.3589680245892 238.52564849340027Q337.75640435256844 234.20940945861642 328.8247810033622 234.20940945861642L328.8247810033622 234.20940945861642Q309.2948677469641 234.20940945861642 296.6666634422252 245.89744288449148L296.6666634422252 245.89744288449148Q295.59828744351637 248.97436576077305 294.9786293642652 252.13675871695128Q294.35897128501404 255.27778415315535 294.0598260053756 258.82479246886885L294.0598260053756 258.82479246886885Q309.2948677469641 241.28205857006915 326.0470034067191 241.28205857006915L326.0470034067191 241.28205857006915Q328.0555502842918 241.28205857006915 328.0555502842918 242.20086192895877L328.0555502842918 242.20086192895877Q328.0555502842918 243.29060544764184 325.8974307668999 243.29060544764184L325.8974307668999 243.29060544764184Q318.3546962160153 243.29060544764184 309.4444403867833 249.44445120020495L309.4444403867833 249.44445120020495Q304.97862871218024 252.52137407648647 301.13247511682823 256.3675276718384Q297.28632152147634 260.2136812671904 293.73931320576287 264.9786382214319L293.73931320576287 264.9786382214319L294.0598260053756 270.36325325492464Q295.8974327231548 293.58974746685556 310.363243745673 307.13675513048406ZM284.67948473671163 273.9102615706381L284.67948473671163 273.9102615706381Q286.9871768939229 267.9059884578943 291.60256120834515 261.90171534515036L291.60256120834515 261.90171534515036Q291.75213384816436 255.27778415315535 293.44016792612445 249.29487856038568L293.44016792612445 249.29487856038568Q290.0640997702044 253.29060479555685 287.90598025281247 257.75641647015993L287.90598025281247 257.75641647015993Q284.5085445769182 264.3589801421808 284.5085445769182 271.7521420532462L284.5085445769182 271.7521420532462Q284.5085445769182 273.14103085156773 284.67948473671163 273.9102615706381ZM304.829056072361 307.7564132097351L304.829056072361 307.7564132097351L306.21794487068246 307.7564132097351Q306.8162354299594 307.7564132097351 307.5854661490299 307.5854730499417L307.5854661490299 307.5854730499417Q292.9700824866925 292.9700893876044 291.60256120834515 268.2051337375327L291.60256120834515 268.2051337375327Q283.91025401764125 280.3632526028397 283.91025401764125 290.2136793109355L283.91025401764125 290.2136793109355Q283.91025401764125 298.52564458089046 289.294869051134 303.4401741749514Q294.6794840846268 308.3547037690121 304.829056072361 307.7564132097351ZM328.35469556393036 315.448720400439L328.35469556393036 315.448720400439Q331.4316184402119 315.448720400439 334.05982339703576 314.358976881756L334.05982339703576 314.358976881756Q341.1324725084885 311.90171208472555 344.67948082420185 305.5982936923432L344.67948082420185 305.5982936923432Q347.9059763403027 299.8931658592379 347.58546354069006 292.52137146814664L347.58546354069006 292.52137146814664Q334.82905411610614 307.2863277703033 316.3675168584168 311.75213944490633L316.3675168584168 311.75213944490633Q322.37178997116064 315.448720400439 328.35469556393036 315.448720400439ZM355.7478561708258 355.5982904319185L355.7478561708258 355.5982904319185Q352.0512752152931 355.5982904319185 348.67520705937307 354.6794870730288L348.67520705937307 354.6794870730288Q337.75640435256844 351.60256419674727 321.75213189190947 337.4358984538676L321.75213189190947 337.4358984538676Q303.7393125536779 321.28205335338953 296.6666634422252 317.75641255765015L296.6666634422252 317.75641255765015Q293.44016792612445 316.2179511195094 290.2136724100236 316.2179511195094L290.2136724100236 316.2179511195094Q287.2863221735613 316.2179511195094 284.82905737653095 317.75641255765015L284.82905737653095 317.75641255765015Q280.3632457019279 320.8333354339318 280.3632457019279 326.6666683868822L280.3632457019279 326.6666683868822Q280.3632457019279 335.89743701572684 290.2136724100236 338.3547018127573L290.2136724100236 338.3547018127573Q292.0512791278029 338.82478725218914 292.0512791278029 339.5940179712595L292.0512791278029 339.5940179712595Q292.0512791278029 340.2136760505107 290.8333304892748 340.2136760505107L290.8333304892748 340.2136760505107L289.294869051134 339.89316325089806Q277.4358954654655 335.89743701572684 277.4358954654655 326.8162410267014L277.4358954654655 326.8162410267014Q277.4358954654655 321.9017114326406 281.4316217006367 318.2906005570046Q285.4487154557821 314.67948968136864 291.60256120834515 314.67948968136864L291.60256120834515 314.67948968136864Q294.6794840846268 314.67948968136864 298.6752103197979 315.89743831989676L298.6752103197979 315.89743831989676Q302.6709365549691 317.1367544783991 307.20085078949467 319.893164555068Q311.75213254399443 322.6709421517111 316.66666213805524 326.6666683868822L316.66666213805524 326.6666683868822L334.20939603685497 341.1324794094003Q344.9786261038404 348.9743592399234 355.7478561708258 351.7521368365665L355.7478561708258 351.7521368365665Q358.5256337674689 352.52136755563686 360.6623857648866 352.52136755563686L360.6623857648866 352.52136755563686Q367.58546223652013 352.52136755563686 370.8333252725952 347.9059832412146L370.8333252725952 347.9059832412146Q371.60255599166555 347.1367525221442 372.0512739111232 346.987179882325L372.0512739111232 346.987179882325Q372.52135935055514 346.81623972253146 372.52135935055514 347.2863251619634L372.52135935055514 347.2863251619634Q372.52135935055514 347.58547044160196 372.0512739111232 348.205128520853L372.0512739111232 348.205128520853Q366.66665887763054 355.5982904319185 355.7478561708258 355.5982904319185Z " fill="#ffffff" transform="matrix(1.207181195559326,0,0,1.2071811955593255,0,-53.02312085184322)"/><path d="M543.2905955019943 367.4358964976127L543.2905955019943 367.4358964976127Q529.294869918908 367.4358964976127 524.5085454446922 358.9743585878384L524.5085454446922 358.9743585878384Q522.8205113667323 355.8974357115569 522.8205113667323 352.9700854750946L522.8205113667323 352.9700854750946Q522.8205113667323 350.36324803824493 524.0598275252345 347.1367525221442L524.0598275252345 347.1367525221442Q520.2136739298827 340.98290676958106 520.2136739298827 334.3589755775861L520.2136739298827 334.3589755775861Q520.2136739298827 326.047010307631 525.7478616031946 320.2136773546806L525.7478616031946 320.2136773546806Q531.2820492765065 314.5085495215752 538.6752111875719 314.5085495215752L538.6752111875719 314.5085495215752Q544.2093988608839 314.5085495215752 549.1239284549447 318.2051304771079L549.1239284549447 318.2051304771079Q552.8205094104774 320.66239527413836 554.6794836482308 324.9786343089222L554.6794836482308 324.9786343089222L592.6709341623183 310.512823286404L594.5085408800975 303.14102889531284Q595.277771599168 300.36325129866975 596.1324723981351 296.51709770331786Q596.9871731971022 292.67094410796585 598.0555491958111 287.90598715372437L598.0555491958111 287.90598715372437Q599.4444379941325 281.4316286015486 600.8333267924542 276.9871844469196Q602.2008480708015 272.52137277231657 603.4401642293037 269.7435951756735L603.4401642293037 269.7435951756735Q603.9102496687357 268.6752191769647 604.5085402280125 268.6752191769647L604.5085402280125 268.6752191769647Q605.4487111068764 268.6752191769647 604.8290530276253 270.21368061510543L604.8290530276253 270.21368061510543Q602.0512754309822 276.21795372784925 599.5940106339518 288.2051324333628L599.5940106339518 288.2051324333628L595.1281989593487 309.4444472876952Q595.8974296784191 309.12393448808257 596.7521304773862 308.82478920844403Q597.5854637563791 308.5256439288055 598.3546944754495 308.20513112919286L598.3546944754495 308.20513112919286L601.2820447119118 306.98718249066474Q602.2008480708015 300.6623965783083 603.1410189496652 294.50855082574515Q604.0598223085549 288.354705073182 605.1281983072637 282.05128668079965L605.1281983072637 282.05128668079965Q610.213668061118 256.04701487222576 619.5940093297818 238.974366412858L619.5940093297818 238.974366412858Q615.277770294998 243.91026352689298 610.7478560604724 250.5128271989138Q606.2179418259467 257.13675839090877 601.2820447119118 265.44872366086383L601.2820447119118 265.44872366086383L594.6794810398909 276.5170990074878Q591.431618003816 282.05128668079965 588.055549847896 287.4359017142924L588.055549847896 287.4359017142924Q576.2179437822016 305.7478663321625 572.5213628266689 305.7478663321625L572.5213628266689 305.7478663321625Q571.4316193079859 305.7478663321625 571.9017047474177 304.6794903334536L571.9017047474177 304.6794903334536Q579.2948666584832 286.81624363504125 579.2948666584832 263.9102622227231L579.2948666584832 263.9102622227231Q579.2948666584832 260.06410862737107 578.9743538588706 256.3675276718384L578.9743538588706 256.3675276718384Q578.2051231398001 256.6666729514769 577.1367471410913 256.6666729514769L577.1367471410913 256.6666729514769L575.4487130631313 256.98718575108956L574.8290549838802 256.98718575108956Q574.9786276236994 258.3547070294369 575.0640977035961 259.97863854747436Q575.1282002635186 261.60257006551194 575.1282002635186 263.2906041434719L575.1282002635186 263.2906041434719Q575.1282002635186 265.74786894050237 574.9786276236994 268.6752191769647Q574.8290549838802 271.602569413427 574.5085421842674 274.8290649295277L574.5085421842674 274.8290649295277Q573.1410209059201 290.3632519507547 568.3546964317044 304.8290629732728L568.3546964317044 304.8290629732728Q568.2051237918851 305.27778089273056 567.7564058724274 305.27778089273056L567.7564058724274 305.27778089273056Q566.987175153357 305.27778089273056 567.2863204329955 304.5085501736602L567.2863204329955 304.5085501736602Q571.6025594677793 291.1324826698251 572.9700807461267 274.6794922897085L572.9700807461267 274.6794922897085Q573.2905935457394 271.43162925363356 573.4401661855586 268.52564653714535Q573.5897388253778 265.59829630068305 573.5897388253778 263.1410315036527L573.5897388253778 263.1410315036527Q573.5897388253778 261.4316299057185 573.5256362654553 259.97863854747436Q573.4401661855586 258.5256471892303 573.2905935457394 257.13675839090877L573.2905935457394 257.13675839090877Q570.8333287487089 257.4359036705473 568.055551152066 257.4359036705473L568.055551152066 257.4359036705473Q554.8290562880501 257.4359036705473 545.7478602990246 252.20086127687384L545.7478602990246 252.20086127687384Q537.5854676688889 247.5854769624515 533.4401687938985 241.75214400950105L533.4401687938985 241.75214400950105Q529.4444425587272 249.29487856038568 529.4444425587272 255.89744223240652L529.4444425587272 255.89744223240652Q529.4444425587272 266.8162449392112 538.9743564672104 266.8162449392112L538.9743564672104 266.8162449392112Q546.3675183782758 266.8162449392112 551.1324753325174 259.2948779083007L551.1324753325174 259.2948779083007Q551.4316206121558 259.2948779083007 551.4316206121558 260.06410862737107L551.4316206121558 260.06410862737107Q550.2136719736278 262.9700913438593 546.2179457384565 265.8974415803216L546.2179457384565 265.8974415803216Q541.7521340638535 269.2948772562157 537.1367497494311 269.2948772562157L537.1367497494311 269.2948772562157Q526.3675196824457 269.2948772562157 526.3675196824457 256.3675276718384L526.3675196824457 256.3675276718384Q526.3675196824457 247.75641712224493 532.0512799955769 239.74359713192837L532.0512799955769 239.74359713192837Q529.7435878383657 235.44872561711873 529.7435878383657 230.98291394251564L529.7435878383657 230.98291394251564Q529.7435878383657 225.27778610941024 533.6752115136144 221.3675299541358Q537.5854676688889 217.43590627888713 543.5897407816327 217.43590627888713L543.5897407816327 217.43590627888713Q551.2820479723366 217.43590627888713 558.6752098834021 223.9102648310629L558.6752098834021 223.9102648310629Q576.2179437822016 223.1410341119925 582.0512767351521 241.6025713696818L582.0512767351521 241.6025713696818Q583.7393108131122 247.13675904299376 584.209396252544 253.7393227150146L584.209396252544 253.7393227150146Q598.9743525547007 248.82479312095379 599.5940106339518 238.974366412858L599.5940106339518 238.974366412858Q599.5940106339518 238.35470833360685 600.213668713203 238.35470833360685L600.213668713203 238.35470833360685Q600.8333267924542 238.52564849340027 600.8333267924542 239.12393905267723L600.8333267924542 239.12393905267723Q600.213668713203 249.89316911966264 584.3589688923634 254.97863887351687L584.3589688923634 254.97863887351687Q584.8290543317952 267.28633037864313 581.6025588156944 281.28205596172927L581.6025588156944 281.28205596172927Q578.5256359394128 294.35897818592593 574.0598242648097 303.5897468147706L574.0598242648097 303.5897468147706Q576.8162343414787 302.37179817624246 582.0512767351521 293.44017482703623L582.0512767351521 293.44017482703623Q583.7393108131122 290.5128245905739 585.4487124110464 287.5854743541116Q587.1367464890063 284.6794916376235 588.8247805669663 281.602568761342L588.8247805669663 281.602568761342Q592.521361522499 274.9786375693469 596.2179424780317 268.44017645724864Q599.8931559135902 261.90171534515036 603.7393095089423 255.27778415315535L603.7393095089423 255.27778415315535Q609.5940099818669 245.44872496503376 615.3632403748946 238.2051356937876Q621.1324707679225 230.98291394251564 626.5170858014153 226.21795698827407L626.5170858014153 226.21795698827407Q627.5854618001242 225.44872626920366 628.6752053188072 225.44872626920366L628.6752053188072 225.44872626920366Q629.8931539573355 225.44872626920366 629.8931539573355 226.51710226791255L629.8931539573355 226.51710226791255Q629.8931539573355 227.28633298698296 629.123923238265 228.52564914548523L629.123923238265 228.52564914548523Q619.7435819696011 242.05128928913953 614.5085395759276 260.9829119862608L614.5085395759276 260.9829119862608Q612.8205054979676 267.28633037864313 611.431616699646 274.44444956999257Q610.0640954212987 281.602568761342 609.2948647022283 289.59402123168434L609.2948647022283 289.59402123168434L607.9059759039068 303.9102596143832Q612.8205054979676 301.7521400969913 620.0640947692139 297.58547370202666L620.0640947692139 297.58547370202666Q622.0512741268124 296.51709770331786 622.5213595662442 296.51709770331786L622.5213595662442 296.51709770331786Q622.8205048458826 296.51709770331786 622.8205048458826 296.66667034313707L622.8205048458826 296.66667034313707Q622.8205048458826 297.7564138618201 619.4444366899627 299.7435932194186L619.4444366899627 299.7435932194186Q615.1281976551787 302.5213708160617 607.1367451848364 307.13675513048406L607.1367451848364 307.13675513048406Q599.5940106339518 338.82478725218914 574.209396904629 356.5170937908081L574.209396904629 356.5170937908081Q558.3546970837893 367.4358964976127 543.2905955019943 367.4358964976127ZM532.8205107146473 238.6752211332195L532.8205107146473 238.6752211332195Q542.2008519833113 226.04701682848062 556.0470049265781 224.20941011070138L556.0470049265781 224.20941011070138Q549.2948686147381 218.67522243738944 542.8205100625623 218.67522243738944L542.8205100625623 218.67522243738944Q537.5854676688889 218.67522243738944 534.1239294330721 222.05129059330946Q530.6623911972554 225.44872626920366 530.6623911972554 230.66240114290298L530.6623911972554 230.66240114290298Q530.6623911972554 234.67949489804832 532.8205107146473 238.6752211332195ZM567.9059785122466 256.2179550320192L567.9059785122466 256.2179550320192L570.5128159490963 256.2179550320192Q571.9017047474177 256.2179550320192 573.1410209059201 256.04701487222576L573.1410209059201 256.04701487222576Q571.4316193079859 243.44017808746108 562.9700813982116 231.60257202176678L562.9700813982116 231.60257202176678Q561.7521327596836 230.064110583626 560.598286681078 228.67522178530447Q559.4444406024724 227.28633298698296 558.20512444397 226.04701682848062L558.20512444397 226.04701682848062Q551.6025607719492 225.44872626920366 544.9786295799543 229.2948798645556Q538.3546983879593 233.14103345990753 534.0598268731495 240.51282785099878L534.0598268731495 240.51282785099878Q537.9059804685015 246.51710096374262 546.3675183782758 251.13248527816492L546.3675183782758 251.13248527816492Q555.2777742075078 256.2179550320192 567.9059785122466 256.2179550320192ZM574.8290549838802 255.89744223240652L574.8290549838802 255.89744223240652L575.2777729033379 255.7478695925873L576.9871745012721 255.44872431294877Q578.055550499981 255.44872431294877 578.8247812190513 255.12821151333614L578.8247812190513 255.12821151333614Q578.055550499981 248.82479312095379 576.5170890618402 243.73932336709956L576.5170890618402 243.73932336709956Q572.0512773872371 229.89317042383257 561.6025601198643 226.81624754755103L561.6025601198643 226.81624754755103Q565.2777735554229 230.66240114290298 568.3546964317044 236.2179563361891L568.3546964317044 236.2179563361891Q573.5897388253778 245.1282121654211 574.8290549838802 255.89744223240652ZM541.4316212642408 362.97008482300964L541.4316212642408 362.97008482300964Q548.0555524562359 362.97008482300964 554.9786289278693 361.13247810523035L554.9786289278693 361.13247810523035Q571.6025594677793 356.6666664306273 583.7393108131122 343.4401715666115L583.7393108131122 343.4401715666115Q596.8162330373087 329.44444598352527 600.8333267924542 309.7435925673336L600.8333267924542 309.7435925673336L594.3589682402784 312.3717975241575Q590.8333274445391 325.59829238817326 585.8974303305041 333.29059957887716L585.8974303305041 333.29059957887716Q579.1239264986898 343.73931684624995 568.3546964317044 350.9829061174961L568.3546964317044 350.9829061174961Q557.1367484452612 358.5256406683808 546.3675183782758 358.5256406683808L546.3675183782758 358.5256406683808Q533.739314073537 358.5256406683808 526.2179470426264 350.0641027586065L526.2179470426264 350.0641027586065Q525.2777761637627 351.9017094763858 525.2777761637627 353.739316194165L525.2777761637627 353.739316194165Q525.2777761637627 355.5982904319185 526.3675196824457 357.13675187005924L526.3675196824457 357.13675187005924Q529.893160478185 362.97008482300964 541.4316212642408 362.97008482300964ZM546.2179457384565 357.28632450987845L546.2179457384565 357.28632450987845Q556.2179450863715 357.28632450987845 567.1367477931763 349.8931625988131L567.1367477931763 349.8931625988131Q576.6666617016593 343.2905989267922 583.5897381732929 332.670941499626L583.5897381732929 332.670941499626Q588.3546951275345 325.44871974835405 591.9017034432479 313.4401735228664L591.9017034432479 313.4401735228664Q569.4444399503874 322.37179687207254 555.897432286759 328.9743605440933L555.897432286759 328.9743605440933Q556.3675177261908 330.8333347818468 556.3675177261908 332.97008677926453L556.3675177261908 332.97008677926453Q556.3675177261908 338.6752146123699 553.4401674897285 343.91025700604337L553.4401674897285 343.91025700604337Q553.2905948499093 344.5085475653203 552.5213641308388 344.2094022856819L552.5213641308388 344.2094022856819Q552.051278691407 344.0598296458626 552.3717914910197 343.2905989267922L552.3717914910197 343.2905989267922Q554.6794836482308 339.1239325318277 554.6794836482308 334.5085482174053L554.6794836482308 334.5085482174053Q554.6794836482308 331.9017107805556 554.0598255689796 329.893163902983L554.0598255689796 329.893163902983Q542.2008519833113 335.5982917360884 535.9829036708255 339.97863333079476Q529.7435878383657 344.3589749255011 526.9871777616969 348.67521396028496L526.9871777616969 348.67521396028496Q534.2093995129688 357.28632450987845 546.2179457384565 357.28632450987845ZM524.829058244305 345.59829108400345L524.829058244305 345.59829108400345Q527.7564084807673 340.3632486903299 534.358972152788 335.89743701572684L534.358972152788 335.89743701572684Q538.0555531083209 333.29059957887716 542.5854673428464 330.8333347818468Q547.1367490973462 328.35470246484226 552.5213641308388 325.8974376678118L552.5213641308388 325.8974376678118Q550.6623898930854 322.52136951189175 547.7564071765973 320.3632499944998L547.7564071765973 320.3632499944998Q542.8205100625623 316.66666903896714 537.4358950290697 316.66666903896714L537.4358950290697 316.66666903896714Q530.982903996868 316.66666903896714 526.047006882833 321.60256615300216L526.047006882833 321.60256615300216Q521.2820499285915 326.51709574706297 521.2820499285915 333.91025765812833L521.2820499285915 333.91025765812833Q521.2820499285915 339.74359061107873 524.829058244305 345.59829108400345ZM679.8931506969107 316.66666903896714L679.8931506969107 316.66666903896714Q672.8205015854578 316.66666903896714 665.7478524740052 312.2008573643641L665.7478524740052 312.2008573643641Q661.4316134392213 312.97008808343446 657.7564000036627 312.97008808343446L657.7564000036627 312.97008808343446Q645.128195698924 312.97008808343446 638.8247773065416 306.8162423308713L638.8247773065416 306.8162423308713Q633.1410169934104 301.28205465755934 633.1410169934104 291.43162794946363L633.1410169934104 291.43162794946363Q633.1410169934104 284.97863691726207 635.5982817904408 277.75641516599L635.5982817904408 277.75641516599Q632.8205041937977 272.52137277231657 632.8205041937977 266.8162449392112L632.8205041937977 266.8162449392112Q632.8205041937977 252.67094671630574 648.5256313748182 241.75214400950105L648.5256313748182 241.75214400950105Q653.2905883290596 230.98291394251564 662.8205022375428 224.97864082977176L662.8205022375428 224.97864082977176Q671.282040147317 219.29488051664057 680.2136634965232 219.29488051664057L680.2136634965232 219.29488051664057Q693.5897310003584 219.29488051664057 697.286311955891 230.36325586326447L697.286311955891 230.36325586326447Q698.3546879546 233.29060609972677 698.2051153147806 236.51710161582758L698.2051153147806 236.51710161582758Q712.6709263372989 244.50855408616994 712.6709263372989 260.9829119862608L712.6709263372989 260.9829119862608Q712.6709263372989 276.9871844469196 701.4316108308815 290.66239723039325L701.4316108308815 290.66239723039325Q701.6025509906749 291.43162794946363 701.6025509906749 292.1367561086115Q701.6025509906749 292.8205167477852 701.6025509906749 293.58974746685556L701.6025509906749 293.58974746685556Q701.6025509906749 299.8931658592379 698.8247733940318 305.27778089273056L698.8247733940318 305.27778089273056Q694.9786197986798 312.6709428037959 686.6666545287248 315.5982930402582L686.6666545287248 315.5982930402582Q683.5897316524433 316.66666903896714 679.8931506969107 316.66666903896714ZM651.6025542510997 239.74359713192837L651.6025542510997 239.74359713192837Q664.6794764752963 232.20086258104374 681.1324668554128 232.20086258104374L681.1324668554128 232.20086258104374Q689.594004765187 232.20086258104374 696.9871666762526 235.89744353657645L696.9871666762526 235.89744353657645Q696.9871666762526 233.14103345990753 696.0469957973887 230.51282850308374L696.0469957973887 230.51282850308374Q692.5213550016495 220.5128291551687 680.2136634965232 220.5128291551687L680.2136634965232 220.5128291551687Q672.0512708663875 220.5128291551687 664.8290491151156 225.27778610941024L664.8290491151156 225.27778610941024Q656.3675112053413 230.66240114290298 651.6025542510997 239.74359713192837ZM662.6709295977237 307.13675513048406L662.6709295977237 307.13675513048406Q672.5213563058194 305.27778089273056 682.1367402941992 299.35897785988345Q691.7521242825792 293.44017482703623 698.3546879546 284.6794916376235L698.3546879546 284.6794916376235Q696.2179359571821 279.12393644433735 691.132466203328 275.06410764924374Q686.0469964494737 270.9829113341758 680.5128087761618 270.9829113341758L680.5128087761618 270.9829113341758Q673.5897323045283 270.9829113341758 669.594006069357 278.20513308544776L669.594006069357 278.20513308544776Q669.594006069357 278.5256458850604 669.2948607897185 278.5256458850604L669.2948607897185 278.5256458850604Q667.9059719913971 278.5256458850604 668.5256300706483 277.5854750061966L668.5256300706483 277.5854750061966Q672.8205015854578 269.59402253585426 680.5128087761618 269.59402253585426L680.5128087761618 269.59402253585426Q686.0469964494737 269.59402253585426 691.4316114829664 273.6752188509222Q696.8162265164592 277.75641516599 699.444431473283 283.14103019948277L699.444431473283 283.14103019948277Q707.4358839436254 271.9017146930654 707.4358839436254 258.97436510868806L707.4358839436254 258.97436510868806Q707.4358839436254 246.21795568410414 697.7563973953229 239.29487921247065L697.7563973953229 239.29487921247065Q696.5170812368206 244.50855408616994 692.6709276414688 248.20513504170262Q688.8247740461168 251.90171599723536 683.5897316524433 252.05128863705457L683.5897316524433 252.05128863705457Q682.9700735731922 252.05128863705457 682.9700735731922 251.43163055780346L682.9700735731922 251.43163055780346Q682.9700735731922 250.83333999852644 683.5897316524433 250.83333999852644L683.5897316524433 250.83333999852644Q688.3546886066849 250.66239983873302 691.9871670022951 247.13675904299376Q695.598277877931 243.58975072728032 696.6666538766399 238.52564849340027L696.6666538766399 238.52564849340027Q690.0640902046191 234.20940945861642 681.1324668554128 234.20940945861642L681.1324668554128 234.20940945861642Q661.6025535990148 234.20940945861642 648.974349294276 245.89744288449148L648.974349294276 245.89744288449148Q647.905973295567 248.97436576077305 647.2863152163159 252.13675871695128Q646.6666571370647 255.27778415315535 646.3675118574263 258.82479246886885L646.3675118574263 258.82479246886885Q661.6025535990148 241.28205857006915 678.3546892587699 241.28205857006915L678.3546892587699 241.28205857006915Q680.3632361363425 241.28205857006915 680.3632361363425 242.20086192895877L680.3632361363425 242.20086192895877Q680.3632361363425 243.29060544764184 678.2051166189506 243.29060544764184L678.2051166189506 243.29060544764184Q670.6623820680659 243.29060544764184 661.7521262388339 249.44445120020495L661.7521262388339 249.44445120020495Q657.2863145642309 252.52137407648647 653.4401609688789 256.3675276718384Q649.5940073735269 260.2136812671904 646.0469990578135 264.9786382214319L646.0469990578135 264.9786382214319L646.3675118574263 270.36325325492464Q648.2051185752055 293.58974746685556 662.6709295977237 307.13675513048406ZM636.9871705887622 273.9102615706381L636.9871705887622 273.9102615706381Q639.2948627459734 267.9059884578943 643.9102470603957 261.90171534515036L643.9102470603957 261.90171534515036Q644.059819700215 255.27778415315535 645.7478537781751 249.29487856038568L645.7478537781751 249.29487856038568Q642.371785622255 253.29060479555685 640.213666104863 257.75641647015993L640.213666104863 257.75641647015993Q636.8162304289688 264.3589801421808 636.8162304289688 271.7521420532462L636.8162304289688 271.7521420532462Q636.8162304289688 273.14103085156773 636.9871705887622 273.9102615706381ZM657.1367419244116 307.7564132097351L657.1367419244116 307.7564132097351L658.5256307227332 307.7564132097351Q659.1239212820101 307.7564132097351 659.8931520010806 307.5854730499417L659.8931520010806 307.5854730499417Q645.277768338743 292.9700893876044 643.9102470603957 268.2051337375327L643.9102470603957 268.2051337375327Q636.2179398696919 280.3632526028397 636.2179398696919 290.2136793109355L636.2179398696919 290.2136793109355Q636.2179398696919 298.52564458089046 641.6025549031847 303.4401741749514Q646.9871699366774 308.3547037690121 657.1367419244116 307.7564132097351ZM680.6623814159809 315.448720400439L680.6623814159809 315.448720400439Q683.7393042922624 315.448720400439 686.3675092490864 314.358976881756L686.3675092490864 314.358976881756Q693.440158360539 311.90171208472555 696.9871666762526 305.5982936923432L696.9871666762526 305.5982936923432Q700.2136621923532 299.8931658592379 699.8931493927407 292.52137146814664L699.8931493927407 292.52137146814664Q687.1367399681567 307.2863277703033 668.6752027104674 311.75213944490633L668.6752027104674 311.75213944490633Q674.6794758232113 315.448720400439 680.6623814159809 315.448720400439ZM708.0555420228764 355.5982904319185L708.0555420228764 355.5982904319185Q704.3589610673437 355.5982904319185 700.9828929114237 354.6794870730288L700.9828929114237 354.6794870730288Q690.0640902046191 351.60256419674727 674.0598177439601 337.4358984538676L674.0598177439601 337.4358984538676Q656.0469984057286 321.28205335338953 648.974349294276 317.75641255765015L648.974349294276 317.75641255765015Q645.7478537781751 316.2179511195094 642.5213582620743 316.2179511195094L642.5213582620743 316.2179511195094Q639.5940080256119 316.2179511195094 637.1367432285815 317.75641255765015L637.1367432285815 317.75641255765015Q632.6709315539786 320.8333354339318 632.6709315539786 326.6666683868822L632.6709315539786 326.6666683868822Q632.6709315539786 335.89743701572684 642.5213582620743 338.3547018127573L642.5213582620743 338.3547018127573Q644.3589649798535 338.82478725218914 644.3589649798535 339.5940179712595L644.3589649798535 339.5940179712595Q644.3589649798535 340.2136760505107 643.1410163413254 340.2136760505107L643.1410163413254 340.2136760505107L641.6025549031847 339.89316325089806Q629.7435813175161 335.89743701572684 629.7435813175161 326.8162410267014L629.7435813175161 326.8162410267014Q629.7435813175161 321.9017114326406 633.7393075526873 318.2906005570046Q637.7564013078327 314.67948968136864 643.9102470603957 314.67948968136864L643.9102470603957 314.67948968136864Q646.9871699366774 314.67948968136864 650.9828961718486 315.89743831989676L650.9828961718486 315.89743831989676Q654.9786224070197 317.1367544783991 659.5085366415453 319.893164555068Q664.0598183960451 322.6709421517111 668.9743479901058 326.6666683868822L668.9743479901058 326.6666683868822L686.5170818889055 341.1324794094003Q697.286311955891 348.9743592399234 708.0555420228764 351.7521368365665L708.0555420228764 351.7521368365665Q710.8333196195194 352.52136755563686 712.9700716169373 352.52136755563686L712.9700716169373 352.52136755563686Q719.8931480885708 352.52136755563686 723.1410111246457 347.9059832412146L723.1410111246457 347.9059832412146Q723.9102418437162 347.1367525221442 724.3589597631737 346.987179882325L724.3589597631737 346.987179882325Q724.8290452026058 346.81623972253146 724.8290452026058 347.2863251619634L724.8290452026058 347.2863251619634Q724.8290452026058 347.58547044160196 724.3589597631737 348.205128520853L724.3589597631737 348.205128520853Q718.9743447296812 355.5982904319185 708.0555420228764 355.5982904319185Z " fill="black" transform="matrix(1.207181195559326,0,0,1.2071811955593255,0,-53.02312085184322)"/></g></svg>